<svg width="128" height="128" fill="none" xmlns="http://www.w3.org/2000/svg">
    <path
        d="M0 16C0 7.163 7.163 0 16 0h96c8.837 0 16 7.163 16 16v96c0 8.837-7.163 16-16 16H16c-8.837 0-16-7.163-16-16V16Z"
        fill="url(#a)"/>
    <path
        d="M109.186 33.348 89.756 96H78.055L65.23 55.023a37.905 37.905 0 0 1-.604-1.9 34.959 34.959 0 0 1-.561-2.201c-.173.777-.36 1.51-.562 2.202-.201.69-.403 1.324-.604 1.9L49.945 96H38.201L18.814 33.348h10.88c1.123 0 2.059.259 2.807.777.777.518 1.281 1.21 1.511 2.073l9.715 35.32c.23.978.461 2.043.691 3.195.26 1.123.504 2.317.734 3.584.26-1.296.533-2.505.82-3.627.289-1.123.605-2.174.95-3.152l11.314-35.32c.23-.72.72-1.368 1.468-1.943.777-.605 1.712-.907 2.806-.907h3.8c1.123 0 2.03.273 2.72.82a4.631 4.631 0 0 1 1.598 2.03l11.27 35.32c.345.92.661 1.928.95 3.022.287 1.065.56 2.202.82 3.411l.647-3.41c.23-1.095.46-2.102.691-3.023l9.715-35.32c.202-.749.691-1.41 1.468-1.986.778-.576 1.713-.864 2.807-.864h10.19Z"
        fill="#fff"/>
    <defs>
        <radialGradient id="a" cx="0" cy="0" r="1" gradientUnits="userSpaceOnUse"
                        gradientTransform="rotate(-45 154.51 64) scale(181.019)">
            <stop stop-color="#FF773C"/>
            <stop offset=".5" stop-color="#6C11C9"/>
            <stop offset="1" stop-color="#3A0078"/>
        </radialGradient>
    </defs>
</svg>
